<?xml version="1.0" encoding="UTF-8"?>
<svg xmlns="http://www.w3.org/2000/svg" xmlns:xlink="http://www.w3.org/1999/xlink" width="0" height="0">
<defs>
<symbol viewBox="0 0 24 24" id="sun"><path fill="currentColor" d="M12 2.25a.75.75 0 0 1 .75.75v2a.75.75 0 1 1-1.5 0V3a.75.75 0 0 1 .75-.75m0 16.004a.75.75 0 0 1 .75.75v2a.75.75 0 1 1-1.5 0v-2a.75.75 0 0 1 .75-.75M2.25 12a.75.75 0 0 1 .75-.75h2a.75.75 0 0 1 0 1.5H3a.75.75 0 0 1-.75-.75m16 0a.75.75 0 0 1 .75-.75h2a.75.75 0 1 1 0 1.5h-2a.75.75 0 0 1-.75-.75m1.28-7.53a.75.75 0 0 1 0 1.06l-2 2a.75.75 0 1 1-1.06-1.06l2-2a.75.75 0 0 1 1.06 0m-15.06 0a.75.75 0 0 1 1.06 0l2 2a.75.75 0 0 1-1.06 1.06l-2-2a.75.75 0 0 1 0-1.06m3.06 12a.75.75 0 0 1 0 1.06l-2 2a.75.75 0 0 1-1.06-1.06l2-2a.75.75 0 0 1 1.06 0m8.94 0a.75.75 0 0 1 1.06 0l2 2a.75.75 0 1 1-1.06 1.06l-2-2a.75.75 0 0 1 0-1.06M12 7.25a4.75 4.75 0 1 0 0 9.5a4.75 4.75 0 0 0 0-9.5"></path></symbol>
<symbol viewBox="0 0 24 24" id="moon"><path fill="currentColor" d="M11.712 3.45a.75.75 0 0 0-.668-1.197c-5.414.494-8.436 4.752-8.764 9.105c-.328 4.361 2.037 8.975 7.451 10.166c5.686 1.25 11.472-2.837 12.016-8.646a.75.75 0 0 0-1.189-.676c-2.837 2.069-6.08 1.316-8.136-.724c-2.054-2.039-2.8-5.239-.71-8.028"></path></symbol>
<symbol viewBox="0 0 24 24" id="lock"><path fill="currentColor" d="M9.572 4.904c.51-.703 1.28-1.154 2.428-1.154s1.919.45 2.428 1.154c.532.736.822 1.813.822 3.096v1.25h-6.5V8c0-1.283.29-2.36.822-3.096M16.75 9.25V8c0-1.478-.33-2.901-1.107-3.975c-.8-1.107-2.03-1.775-3.643-1.775s-2.842.668-3.643 1.775C7.58 5.099 7.25 6.522 7.25 8v1.25h-.58c-.535 0-.98 0-1.345.03c-.38.031-.736.098-1.073.27a2.75 2.75 0 0 0-1.202 1.202c-.172.337-.24.694-.27 1.074c-.03.364-.03.81-.03 1.344v4.66c0 .535 0 .98.03 1.345c.03.38.098.737.27 1.074a2.75 2.75 0 0 0 1.202 1.202c.337.172.693.239 1.073.27c.365.03.81.03 1.345.03h10.66c.535 0 .98 0 1.345-.03c.38-.031.736-.098 1.073-.27a2.75 2.75 0 0 0 1.202-1.202c.172-.337.24-.694.27-1.074c.03-.364.03-.81.03-1.344V13.17c0-.534 0-.98-.03-1.344c-.03-.38-.098-.737-.27-1.074a2.75 2.75 0 0 0-1.2-1.202c-.338-.172-.694-.239-1.074-.27c-.365-.03-.81-.03-1.345-.03z"></path></symbol>
<symbol viewBox="0 0 24 24" id="envelop"><path fill="currentColor" d="M7.125 3.75h9.75c.813 0 1.468 0 2 .043c.546.045 1.026.14 1.47.366a3.75 3.75 0 0 1 1.64 1.639c.226.444.32.924.365 1.47q.01.12.016.247a.75.75 0 0 1 .014.336c.013.41.013.879.013 1.417v5.464c0 .813 0 1.469-.043 2c-.045.546-.14 1.026-.366 1.47a3.75 3.75 0 0 1-1.639 1.64c-.444.226-.924.32-1.47.365c-.532.043-1.187.043-2 .043h-9.75c-.813 0-1.468 0-2-.043c-.546-.045-1.026-.14-1.47-.366a3.75 3.75 0 0 1-1.639-1.639c-.226-.444-.32-.924-.365-1.47c-.044-.531-.044-1.187-.044-2V9.268c0-.538 0-1.007.013-1.417a.75.75 0 0 1 .014-.336q.007-.128.017-.246c.044-.547.139-1.027.365-1.471a3.75 3.75 0 0 1 1.639-1.64c.444-.226.924-.32 1.47-.365c.532-.043 1.187-.043 2-.043M20.85 7.341c-.038-.423-.105-.672-.202-.862a2.25 2.25 0 0 0-.983-.984c-.198-.1-.459-.17-.913-.207c-.462-.037-1.057-.038-1.909-.038H7.157c-.852 0-1.446 0-1.91.038c-.453.037-.714.107-.911.207a2.25 2.25 0 0 0-.984.984c-.096.19-.164.439-.202.862l6.604 4.403c1.01.674 1.363.895 1.722.981a2.25 2.25 0 0 0 1.048 0c.36-.086.711-.307 1.723-.981z"></path></symbol>
<symbol viewBox="0 0 24 24" id="at"><path fill="none" stroke="currentColor" stroke-linecap="round" stroke-linejoin="round" stroke-width="1.5" d="M8 10V8c0-2.761 1.239-5 4-5s4 2.239 4 5v2M3.5 17.8v-4.6c0-1.12 0-1.68.218-2.107a2 2 0 0 1 .874-.875c.428-.217.988-.217 2.108-.217h10.6c1.12 0 1.68 0 2.108.217a2 2 0 0 1 .874.874c.218.428.218.988.218 2.108v4.6c0 1.12 0 1.68-.218 2.108a2 2 0 0 1-.874.874C18.98 21 18.42 21 17.3 21H6.7c-1.12 0-1.68 0-2.108-.218a2 2 0 0 1-.874-.874C3.5 19.481 3.5 18.921 3.5 17.8"></path></symbol>
</defs>
</svg>